<?xml version="1.0" encoding="UTF-8" standalone="no"?>
<!DOCTYPE svg PUBLIC "-//W3C//DTD SVG 1.1//EN" "http://www.w3.org/Graphics/SVG/1.1/DTD/svg11.dtd">
<svg version="1.1" xmlns="http://www.w3.org/2000/svg" xmlns:xlink="http://www.w3.org/1999/xlink"
     preserveAspectRatio="xMidYMid meet" viewBox="0 0 640 640" width="640" height="640">
  <defs>
    <path d="M351.18 224.94L382.93 161.29L452.56 209.96L512.01 202.94L633.75 335.39L395.55 335.39L351.17 224.94"
          id="e3coNf9CiG"></path>
    <path d="M362.05 203.15L378.86 197.32L446.86 269.87L474.95 268.93L568.6 335.39L412.66 335.39L362.05 203.15"
          id="aDgQRuP6B"></path>
    <path d="M166.32 235.23L257.52 29.32L441.57 335.39L243.27 335.39L166.31 235.23" id="c2lpSMYmAN"></path>
    <path d="M192.78 243.66L232.28 165.5L237.98 270.8L192.78 243.66Z" id="b2Y9c9DVZ8"></path>
    <path d="M257.52 29.32L244.9 143.97L316.56 228.22L323.08 335.39L441.57 335.39L257.52 29.32" id="c2qRe7WTXs"></path>
    <path d="M316.56 228.22L395.55 335.39L323.08 335.39L316.56 228.22Z" id="eQtDTVsRu"></path>
    <path d="M11.34 335.39L141.69 197.8L224.15 239.84L358.49 335.39L11.34 335.39" id="b2sWQSlkQL"></path>
    <path
        d="M183.24 335.39L138.69 197.8L221.15 239.84L355.49 335.39L183.24 335.39M42.13 335.39L104.43 266.12L95.88 311.99L142.29 335.39L42.13 335.39"
        id="b1codTWtDY"></path>
    <path
        d="M302.72 335.39L178.13 259.57L170.51 296.08L183.24 335.39L220.88 335.39L221.49 321.11L279.1 335.39L302.72 335.39"
        id="f11VcNreBn"></path>
    <path
        d="M362.05 203.15L389.45 174.63L410.23 180.37L382.93 161.29L362.05 203.15M452.56 209.96L518.07 209.53L501.37 192.7L452.56 209.96Z"
        id="b1Val3Zgyo"></path>
    <path d="M492.21 228.27L495.06 254.48L568.35 305.96L492.21 228.27Z" id="f4VLMTP2dB"></path>
    <path d="M351.18 438.77L382.93 498.34L452.56 452.78L512.01 459.35L633.75 335.39L395.55 335.39L351.17 438.77"
          id="kjr1iU750"></path>
    <path d="M362.05 459.16L378.86 464.61L446.86 396.72L474.96 397.59L568.61 335.39L412.66 335.39L362.05 459.16"
          id="f2MDR2ku8f"></path>
    <path d="M166.32 429.13L257.52 621.86L441.57 335.39L243.27 335.39L166.31 429.13" id="dnFGoDBWw"></path>
    <path d="M192.78 421.24L232.28 494.39L237.98 395.84L192.78 421.24Z" id="i1s8Qfle5Y"></path>
    <path d="M257.52 621.86L244.9 514.54L316.56 435.7L323.08 335.39L441.57 335.39L257.52 621.86" id="dK7BSu0w8"></path>
    <path d="M316.56 435.7L395.55 335.39L323.08 335.39L316.56 435.7Z" id="ce1Ah8qLN"></path>
    <path d="M8.34 335.39L138.69 464.17L221.15 424.82L355.49 335.39L8.34 335.39" id="c3jCArnGVf"></path>
    <path
        d="M183.24 335.39L138.69 464.17L221.15 424.82L355.49 335.39L183.24 335.39M42.13 335.39L104.43 400.22L95.88 357.29L142.29 335.39L42.13 335.39"
        id="b3vL4hRDXX"></path>
    <path
        d="M302.72 335.39L178.13 406.35L170.51 372.18L183.24 335.39L220.88 335.39L221.49 348.75L279.1 335.39L302.72 335.39"
        id="a2nhHgbOcH"></path>
    <path
        d="M362.05 459.16L389.45 485.85L410.23 480.48L382.93 498.34L362.05 459.16M452.56 452.78L518.07 453.18L501.37 468.94L452.56 452.78Z"
        id="c2poNJPzjk"></path>
    <path d="M492.21 435.64L495.06 411.11L568.35 362.93L492.21 435.64Z" id="anousXHlT"></path>
    <path
        d="M189.77 690.66C189.77 689.79 189.65 689.03 189.39 688.41C189.13 687.79 188.78 687.31 188.33 686.97C188.61 687.7 189.48 689.92 189.77 690.66ZM-94.78 693.67C-94.78 693.91 -94.77 694.04 -94.77 694.07C-94.79 693.32 -94.81 692.77 -94.82 692.43C-94.83 692.09 -94.83 691.93 -94.83 691.95C-94.83 691.98 -94.82 692.27 -94.81 692.82C-94.79 693.36 -94.77 694.14 -94.74 695.17C-94.71 696.19 -94.68 697.39 -94.64 698.77C-94.61 699.79 -94.59 700.72 -94.56 701.56C-94.54 702.4 -94.52 703.11 -94.5 703.67C-94.56 701.72 -94.56 701.68 -94.51 703.58C-94.45 705.48 -94.36 708.6 -94.31 710.55C-94.25 712.49 -94.25 712.53 -94.31 710.64C-94.32 710.05 -94.34 709.32 -94.37 708.51C-119.04 -169.25 -119.04 -169.25 -119.04 -169.25C-119.04 -169.25 -119.04 -169.25 -119.04 -169.25C-119.04 -169.25 -119.04 -169.25 -119.04 -169.25C-119.04 -169.25 -119.04 -169.25 -119.04 -169.25C-119.04 -169.25 -119.04 -169.25 -119.04 -169.25C-119.04 -169.25 -119.04 -169.25 -119.04 -169.25C-119.04 -169.25 -119.04 -169.25 -119.04 -169.25C-119.04 -169.25 -119.04 -169.25 -119.04 -169.25C-119.04 -169.25 -119.04 -169.25 -119.04 -169.25C-119.04 -169.25 -119.04 -169.25 -119.04 -169.25C-119.04 -169.25 -119.04 -169.25 -119.04 -169.25C-119.04 -169.25 -119.04 -169.25 -119.04 -169.25C-119.04 -169.25 -119.04 -169.25 -119.04 -169.25C-119.04 -169.25 -119.04 -169.25 -119.04 -169.25M-94.8 693.2C-94.76 694.52 -94.73 695.52 -94.71 696.24C-94.69 696.95 -94.68 697.31 -94.68 697.32C-94.68 697.33 -94.69 696.97 -94.71 696.25C-94.73 695.54 -94.76 694.51 -94.8 693.16C-94.82 692.28 -94.84 691.53 -94.86 690.9C-94.88 690.27 -94.89 689.78 -94.9 689.44C-119.04 -169.25 -119.04 -169.25 -119.04 -169.25C-119.04 -169.25 -119.04 -169.25 -119.04 -169.25C-119.04 -169.25 -119.04 -169.25 -119.04 -169.25C-119.04 -169.25 -119.04 -169.25 -119.04 -169.25C-119.04 -169.25 -119.04 -169.25 -119.04 -169.25C-119.04 -169.25 -119.04 -169.25 -119.04 -169.25C-119.04 -169.25 -119.04 -169.25 -119.04 -169.25C-114.19 3.24 -99.65 520.71 -94.8 693.2ZM-94.8 692.93C-94.8 692.93 -94.81 692.78 -94.82 692.48C-94.83 692.2 -94.84 691.79 -94.85 691.28C-94.86 690.81 -94.87 690.43 -94.88 690.13C-94.89 689.83 -94.9 689.7 -94.9 689.7C-94.89 689.71 -94.89 689.85 -94.88 690.13C-94.88 690.41 -94.86 690.82 -94.85 691.34C-94.83 691.85 -94.82 692.24 -94.82 692.52C-119.04 -169.25 -119.04 -169.25 -119.04 -169.25C-119.04 -169.25 -119.04 -169.25 -119.04 -169.25C-119.04 -169.25 -119.04 -169.25 -119.04 -169.25C-119.04 -169.25 -119.04 -169.25 -119.04 -169.25C-119.04 -169.25 -119.04 -169.25 -119.04 -169.25C-119.04 -169.25 -119.04 -169.25 -119.04 -169.25C-119.04 -169.25 -119.04 -169.25 -119.04 -169.25C-119.04 -169.25 -119.04 -169.25 -119.04 -169.25C-119.04 -169.25 -119.04 -169.25 -119.04 -169.25C-119.04 -169.25 -119.04 -169.25 -119.04 -169.25C-119.04 -169.25 -119.04 -169.25 -119.04 -169.25C-119.04 -169.25 -119.04 -169.25 -119.04 -169.25C-119.04 -169.25 -119.04 -169.25 -119.04 -169.25C-119.04 -169.25 -119.04 -169.25 -119.04 -169.25M-95.02 685.12C-95.02 685.3 -95.01 685.49 -95.01 685.69C-95 685.89 -95 686.03 -95 686.13C-119.04 -169.25 -119.04 -169.25 -119.04 -169.25C-119.04 -169.25 -119.04 -169.25 -119.04 -169.25C-119.04 -169.25 -119.04 -169.25 -119.04 -169.25C-119.04 -169.25 -119.04 -169.25 -119.04 -169.25C-114.24 1.62 -99.83 514.25 -95.02 685.12ZM-94.91 689.07C-94.91 689.07 -94.92 688.92 -94.93 688.63C-94.93 688.35 -94.94 687.94 -94.96 687.43C-94.97 686.96 -94.98 686.59 -94.99 686.28C-95.15 680.59 -95.17 680.03 -95.18 679.68C-95.19 679.32 -95.19 679.14 -95.19 679.14C-95.19 679.14 -95.19 679.33 -95.18 679.71C-95.17 680.08 -95.15 680.61 -95.13 681.3C-95.12 681.71 -95.11 682.14 -95.09 682.61C-95.08 683.07 -95.06 683.66 -95.04 684.39C-95.03 685 -94.89 689.89 -94.87 690.5C-94.85 691.16 -94.84 691.66 -94.83 692C-94.82 692.33 -94.82 692.5 -94.82 692.5C-94.82 692.5 -94.82 692.33 -94.83 691.98C-94.84 691.64 -94.85 691.15 -94.87 690.5C-94.89 689.95 -95.01 685.58 -95.03 685.03C-95.06 683.94 -95.08 683.11 -95.1 682.54C-95.11 681.97 -95.12 681.68 -95.12 681.68C-95.12 681.68 -95.12 681.85 -95.11 682.2C-95.1 682.55 -95.08 683.03 -95.07 683.64C-95.05 684.13 -95.03 685.04 -94.99 686.39C-94.98 686.8 -94.88 690.09 -94.87 690.5C-94.85 691.17 -94.84 691.67 -94.83 692.01C-94.82 692.33 -94.82 692.5 -94.82 692.5C-94.82 692.5 -94.82 692.33 -94.83 691.99C-94.84 691.64 -94.85 691.15 -94.87 690.5C-94.9 689.55 -95.11 681.96 -95.14 681.01C-95.16 680.38 -95.17 679.91 -95.18 679.61C-95.19 679.3 -95.19 679.14 -95.19 679.14C-95.19 679.14 -95.19 679.21 -95.19 679.35C-95.18 679.48 -95.18 679.69 -95.17 679.95C-95.16 680.24 -95.15 680.57 -95.14 680.96M-95.16 680.39L-94.95 687.85C-95.08 683.17 -95.15 680.58 -95.17 680.06C-95.18 679.43 -95.2 678.99 -95.2 678.73C-95.21 678.47 -95.21 678.33 -95.21 678.33C-95.21 678.33 -95.21 678.47 -95.2 678.76C-95.2 679.03 -95.19 679.35 -95.18 679.73C-95.17 679.87 -95.17 680.04 -95.16 680.23C-95.16 680.43 -95.15 680.61 -95.15 680.78C-95.14 680.94 -95.14 681.14 -95.13 681.35C-95.11 682.13 -94.93 688.4 -94.91 689.18C-94.9 689.41 -94.9 689.7 -94.89 690.04C-94.88 690.38 -94.87 690.68 -94.86 690.93C-94.85 691.17 -94.85 691.36 -94.84 691.5C-97.27 605.16 -116.68 -85.48 -119.11 -171.82C-119.11 -171.82 -119.11 -171.81 -119.11 -171.81C-119.11 -171.81 -119.11 -171.81 -119.11 -171.81C-119.11 -171.81 -119.11 -171.8 -119.11 -171.8C-119.11 -171.8 -119.11 -171.8 -119.11 -171.8C-115.92 -58.17 -107.93 225.89 -95.16 680.39ZM-95.12 681.83C-95.12 681.84 -95.12 681.84 -95.12 681.85C-95.1 682.59 -95.08 683.25 -95.06 683.82C-95.04 684.39 -95.03 684.82 -95.02 685.11C-95.02 685.4 -95.01 685.53 -95.01 685.53C-95.01 685.53 -95.01 685.48 -95.02 685.4C-95.02 685.3 -95.02 685.15 -95.03 684.96C-95.07 683.45 -95.08 683.29 -95.08 683.29C-95.08 683.29 -95.07 683.56 -95.05 684.11C-95.04 684.65 -95.02 685.34 -94.99 686.2C-94.97 687.06 -94.94 687.93 -94.92 688.83C-94.9 689.65 -94.88 690.19 -94.87 690.43C-94.87 690.68 -94.86 690.8 -94.86 690.8M-94.97 687.12C-94.96 687.53 -94.94 687.97 -94.93 688.44C-94.92 688.9 -94.91 689.34 -94.89 689.77C-94.88 690.19 -94.87 690.53 -94.86 690.78C-94.86 691.05 -94.85 691.18 -94.85 691.18C-94.85 691.18 -94.87 690.6 -94.9 689.42C-94.94 688.24 -94.98 686.66 -95.04 684.66C-95.07 683.32 -95.11 682.12 -95.14 681.09C-95.17 680.06 -95.19 679.25 -95.2 678.68C-95.22 678.11 -95.23 677.83 -95.23 677.82C-95.23 677.82 -95.23 677.95 -95.22 678.19C-95.21 678.41 -95.16 680.23 -95.16 680.46C-95.17 679.94 -95.18 679.51 -95.19 679.22C-95.2 678.91 -95.21 678.66 -95.21 678.44C-95.22 678.22 -95.22 678.03 -95.23 677.89C-95.23 677.75 -95.23 677.69 -95.23 677.69C-95.23 677.69 -95.23 677.85 -95.22 678.15C-95.21 678.37 -95.21 678.62 -95.2 678.91C-95.19 679.22 -95.18 679.65 -95.16 680.2C-95.16 680.35 -95.14 681.09 -95.1 682.43C-95.1 682.43 -95.1 682.43 -95.1 682.43C-95.1 682.43 -95.1 682.54 -95.09 682.76C-95.08 682.98 -95.08 683.26 -95.07 683.61C-95.05 684.05 -95.05 684.36 -95.04 684.54C-95.04 684.71 -95.03 684.8 -95.03 684.8C-95.03 684.8 -95.03 684.8 -95.03 684.8C-94.93 688.43 -94.87 690.44 -94.86 690.85C-94.85 691.36 -94.84 691.75 -94.83 692.03C-94.82 692.31 -94.82 692.54 -94.81 692.7C-94.81 692.88 -94.8 692.97 -94.8 692.97C-94.8 692.97 -94.8 692.94 -94.81 692.86C-94.81 692.8 -94.81 692.76 -94.81 692.76C-94.81 692.76 -94.81 692.87 -94.8 693.08C-94.79 693.29 -94.79 693.55 -94.78 693.87C-94.76 694.39 -94.75 694.8 -94.74 695.08C-94.74 695.36 -94.73 695.5 -94.73 695.5C-94.73 695.5 -94.74 695.33 -94.75 694.98M-94.69 696.93C-94.71 696.17 -94.72 695.77 -94.73 695.74C-94.73 695.73 -94.72 695.88 -94.71 696.2C-94.7 696.52 -94.69 697 -94.67 697.64C-94.65 698.28 -94.63 699.03 -94.61 699.9C-94.58 700.75 -94.56 701.51 -94.55 702.15C-94.53 702.8 -94.51 703.3 -94.5 703.66C-94.49 704.01 -94.49 704.2 -94.49 704.21C-94.49 704.24 -94.5 703.89 -94.52 703.16C-94.54 702.43 -94.57 701.4 -94.6 700.08C-94.64 698.75 -94.67 697.69 -94.69 696.93ZM-94.6 700.17C-94.57 701.15 -94.55 702.04 -94.53 702.87C-94.59 700.67 -94.58 700.94 -94.51 703.46C-94.44 705.98 -94.33 709.8 -94.27 711.99C-94.21 714.19 -94.21 713.92 -94.29 711.4C-94.31 710.61 -94.33 709.66 -94.36 708.64C-94.4 707.35 -94.38 707.86 -94.38 708.19C-94.37 708.52 -94.36 708.69 -94.36 708.69C-94.36 708.69 -94.37 708.52 -94.38 708.18C-94.39 707.85 -94.4 707.35 -94.42 706.69C-94.44 705.78 -94.65 698.47 -94.67 697.56C-94.72 696.08 -94.74 695.35 -94.74 695.35C-94.74 695.35 -94.73 695.52 -94.72 695.86C-94.71 696.21 -94.7 696.72 -94.68 697.39C-94.7 696.72 -94.71 696.21 -94.72 695.86C-94.73 695.52 -94.74 695.35 -94.74 695.35C-94.74 695.35 -94.73 695.52 -94.72 695.86C-94.71 696.21 -94.7 696.67 -94.68 697.23C-94.67 697.63 -94.66 697.97 -94.66 698.22C-94.65 698.48 -94.64 698.62 -94.64 698.62C-94.64 698.62 -94.65 698.54 -94.65 698.39C-94.66 698.24 -94.66 698.17 -94.66 698.17C-94.66 698.17 -94.65 698.29 -94.65 698.55C-94.64 698.81 -94.63 699.18 -94.62 699.67C-94.61 699.77 -94.6 700.07 -94.6 700.17ZM-95.03 684.74C-95.01 685.71 -94.98 686.61 -94.96 687.44C-95.02 685.32 -95.01 685.68 -94.94 688.25C-94.86 690.81 -94.76 694.62 -94.7 696.74C-94.64 698.86 -94.65 698.5 -94.72 695.93C-94.74 695.12 -94.77 694.14 -94.8 693.1C-94.81 692.7 -94.82 692.54 -94.82 692.54C-94.82 692.54 -94.81 692.7 -94.8 693.02C-94.79 693.34 -94.78 693.8 -94.76 694.39C-93.22 749.24 -80.89 1188.02 -79.35 1242.87C-79.39 1241.4 -79.41 1240.67 -79.41 1240.67C-79.41 1240.67 -79.4 1240.84 -79.39 1241.18C-79.39 1241.53 -79.37 1242.04 -79.35 1242.71C-79.37 1242.04 -79.39 1241.53 -79.39 1241.18C-79.4 1240.84 -79.41 1240.67 -79.41 1240.67C-79.41 1240.67 -79.4 1240.84 -79.39 1241.18C-79.39 1241.53 -79.37 1241.98 -79.36 1242.55C-79.35 1242.95 -79.34 1243.28 -79.33 1243.54C-79.32 1243.8 -79.32 1243.93 -79.32 1243.93C-79.32 1243.93 -79.32 1243.86 -79.32 1243.7C-79.33 1243.56 -79.33 1243.48 -79.33 1243.48C-79.33 1243.48 -79.33 1243.61 -79.32 1243.86C-79.31 1244.12 -79.3 1244.49 -79.29 1244.98C-82.44 1132.93 -91.89 796.79 -95.03 684.74ZM-94.71 696.23C-94.55 701.93 -94.46 705.1 -94.44 705.73C-94.41 706.82 -94.39 707.75 -94.37 708.52C-94.34 709.3 -94.33 709.94 -94.31 710.43C-94.3 710.93 -94.29 711.28 -94.28 711.5C-94.28 711.72 -94.27 711.81 -94.28 711.77C-94.28 711.73 -94.28 711.54 -94.29 711.2C-94.3 710.85 -94.31 710.42 -94.33 709.9C-94.34 709.39 -94.36 708.87 -94.37 708.34C-94.38 707.94 -94.39 707.62 -94.4 707.38C-94.41 707.13 -94.41 707.02 -94.41 707.03C-94.41 707.04 -94.4 707.27 -94.39 707.71C-94.38 707.93 -94.38 708.15 -94.37 708.38C-94.36 708.61 -94.36 708.8 -94.35 708.96C-94.35 709.13 -94.35 709.25 -94.34 709.34C-94.34 709.43 -94.34 709.48 -94.34 709.49C-94.34 709.52 -94.34 709.42 -94.35 709.2C-94.35 708.98 -94.36 708.67 -94.37 708.25C-94.39 707.83 -94.4 707.39 -94.41 706.9C-94.43 706.41 -94.45 705.64 -94.48 704.57C-94.46 705.25 -94.44 705.77 -94.43 706.11C-94.42 706.46 -94.42 706.61 -94.42 706.58C-94.42 706.55 -94.43 706.24 -94.45 705.65C-94.46 705.06 -94.49 704.26 -94.51 703.24C-94.54 702.22 -94.58 701.05 -94.61 699.73C-94.64 698.74 -94.67 697.86 -94.69 697.08C-94.71 696.3 -94.73 695.64 -94.74 695.12C-94.74 695.24 -94.68 697.43 -94.61 700C-94.53 702.58 -94.48 704.56 -94.48 704.44C-94.48 704.33 -94.53 702.59 -94.6 700.33C-94.42 706.44 -94.32 710.28 -94.31 710.54C-94.3 710.8 -94.4 707.4 -94.52 702.94C-94.52 702.98 -94.5 703.6 -94.5 703.77C-94.5 703.94 -94.51 703.58 -94.52 702.97C-94.52 702.97 -94.52 702.97 -94.52 702.97C-94.54 702.35 -94.55 701.91 -94.55 701.97C-94.55 702.04 -94.53 702.59 -94.52 703.21C-94.52 703.21 -94.52 703.21 -94.52 703.21C-94.52 703.18 -94.51 703.43 -94.5 703.77C-94.49 704.11 -94.48 704.41 -94.48 704.44C-94.48 704.47 -94.49 704.22 -94.5 703.88C-94.5 703.76 -94.5 703.65 -94.51 703.54"
        id="g3zzzFuCv1"></path>
  </defs>
  <g>
    <g>
      <g>
        <use xlink:href="#e3coNf9CiG" opacity="1" fill="#7d8199" fill-opacity="1"></use>
        <g>
          <use xlink:href="#e3coNf9CiG" opacity="1" fill-opacity="0" stroke="#000000" stroke-width="1"
               stroke-opacity="0"></use>
        </g>
      </g>
      <g>
        <use xlink:href="#aDgQRuP6B" opacity="1" fill="#4a527c" fill-opacity="1"></use>
        <g>
          <use xlink:href="#aDgQRuP6B" opacity="1" fill-opacity="0" stroke="#000000" stroke-width="1"
               stroke-opacity="0"></use>
        </g>
      </g>
      <g>
        <use xlink:href="#c2lpSMYmAN" opacity="1" fill="#eceff4" fill-opacity="1"></use>
        <g>
          <use xlink:href="#c2lpSMYmAN" opacity="1" fill-opacity="0" stroke="#000000" stroke-width="1"
               stroke-opacity="0"></use>
        </g>
      </g>
      <g>
        <use xlink:href="#b2Y9c9DVZ8" opacity="1" fill="#4a527c" fill-opacity="1"></use>
        <g>
          <use xlink:href="#b2Y9c9DVZ8" opacity="1" fill-opacity="0" stroke="#000000" stroke-width="1"
               stroke-opacity="0"></use>
        </g>
      </g>
      <g>
        <use xlink:href="#c2qRe7WTXs" opacity="1" fill="#7d8199" fill-opacity="1"></use>
        <g>
          <use xlink:href="#c2qRe7WTXs" opacity="1" fill-opacity="0" stroke="#000000" stroke-width="1"
               stroke-opacity="0"></use>
        </g>
      </g>
      <g>
        <use xlink:href="#eQtDTVsRu" opacity="1" fill="#4a527c" fill-opacity="1"></use>
        <g>
          <use xlink:href="#eQtDTVsRu" opacity="1" fill-opacity="0" stroke="#000000" stroke-width="1"
               stroke-opacity="0"></use>
        </g>
      </g>
      <g>
        <use xlink:href="#b2sWQSlkQL" opacity="1" fill="#eceff4" fill-opacity="1"></use>
        <g>
          <use xlink:href="#b2sWQSlkQL" opacity="1" fill-opacity="0" stroke="#000000" stroke-width="1"
               stroke-opacity="0"></use>
        </g>
      </g>
      <g>
        <use xlink:href="#b1codTWtDY" opacity="1" fill="#7d8199" fill-opacity="1"></use>
        <g>
          <use xlink:href="#b1codTWtDY" opacity="1" fill-opacity="0" stroke="#000000" stroke-width="1"
               stroke-opacity="0"></use>
        </g>
      </g>
      <g>
        <use xlink:href="#f11VcNreBn" opacity="1" fill="#4a527c" fill-opacity="1"></use>
        <g>
          <use xlink:href="#f11VcNreBn" opacity="1" fill-opacity="0" stroke="#000000" stroke-width="1"
               stroke-opacity="0"></use>
        </g>
      </g>
      <g>
        <use xlink:href="#b1Val3Zgyo" opacity="1" fill="#eceff4" fill-opacity="1"></use>
        <g>
          <use xlink:href="#b1Val3Zgyo" opacity="1" fill-opacity="0" stroke="#000000" stroke-width="1"
               stroke-opacity="0"></use>
        </g>
      </g>
      <g>
        <use xlink:href="#f4VLMTP2dB" opacity="1" fill="#4a527c" fill-opacity="1"></use>
        <g>
          <use xlink:href="#f4VLMTP2dB" opacity="1" fill-opacity="0" stroke="#000000" stroke-width="1"
               stroke-opacity="0"></use>
        </g>
      </g>
      <g>
        <use xlink:href="#kjr1iU750" opacity="1" fill="#4a527c" fill-opacity="1"></use>
        <g>
          <use xlink:href="#kjr1iU750" opacity="1" fill-opacity="0" stroke="#000000" stroke-width="1"
               stroke-opacity="0"></use>
        </g>
      </g>
      <g>
        <use xlink:href="#f2MDR2ku8f" opacity="1" fill="#242940" fill-opacity="1"></use>
        <g>
          <use xlink:href="#f2MDR2ku8f" opacity="1" fill-opacity="0" stroke="#000000" stroke-width="1"
               stroke-opacity="0"></use>
        </g>
      </g>
      <g>
        <use xlink:href="#dnFGoDBWw" opacity="1" fill="#7d8199" fill-opacity="1"></use>
        <g>
          <use xlink:href="#dnFGoDBWw" opacity="1" fill-opacity="0" stroke="#000000" stroke-width="1"
               stroke-opacity="0"></use>
        </g>
      </g>
      <g>
        <use xlink:href="#i1s8Qfle5Y" opacity="1" fill="#242940" fill-opacity="1"></use>
        <g>
          <use xlink:href="#i1s8Qfle5Y" opacity="1" fill-opacity="0" stroke="#000000" stroke-width="1"
               stroke-opacity="0"></use>
        </g>
      </g>
      <g>
        <use xlink:href="#dK7BSu0w8" opacity="1" fill="#4a527c" fill-opacity="1"></use>
        <g>
          <use xlink:href="#dK7BSu0w8" opacity="1" fill-opacity="0" stroke="#000000" stroke-width="1"
               stroke-opacity="0"></use>
        </g>
      </g>
      <g>
        <use xlink:href="#ce1Ah8qLN" opacity="1" fill="#242940" fill-opacity="1"></use>
        <g>
          <use xlink:href="#ce1Ah8qLN" opacity="1" fill-opacity="0" stroke="#000000" stroke-width="1"
               stroke-opacity="0"></use>
        </g>
      </g>
      <g>
        <use xlink:href="#c3jCArnGVf" opacity="1" fill="#7d8199" fill-opacity="1"></use>
        <g>
          <use xlink:href="#c3jCArnGVf" opacity="1" fill-opacity="0" stroke="#000000" stroke-width="1"
               stroke-opacity="0"></use>
        </g>
      </g>
      <g>
        <use xlink:href="#b3vL4hRDXX" opacity="1" fill="#4a527c" fill-opacity="1"></use>
        <g>
          <use xlink:href="#b3vL4hRDXX" opacity="1" fill-opacity="0" stroke="#000000" stroke-width="1"
               stroke-opacity="0"></use>
        </g>
      </g>
      <g>
        <use xlink:href="#a2nhHgbOcH" opacity="1" fill="#242940" fill-opacity="1"></use>
        <g>
          <use xlink:href="#a2nhHgbOcH" opacity="1" fill-opacity="0" stroke="#000000" stroke-width="1"
               stroke-opacity="0"></use>
        </g>
      </g>
      <g>
        <use xlink:href="#c2poNJPzjk" opacity="1" fill="#7d8199" fill-opacity="1"></use>
        <g>
          <use xlink:href="#c2poNJPzjk" opacity="1" fill-opacity="0" stroke="#000000" stroke-width="1"
               stroke-opacity="0"></use>
        </g>
      </g>
      <g>
        <use xlink:href="#anousXHlT" opacity="1" fill="#242940" fill-opacity="1"></use>
        <g>
          <use xlink:href="#anousXHlT" opacity="1" fill-opacity="0" stroke="#000000" stroke-width="1"
               stroke-opacity="0"></use>
        </g>
      </g>
      <g>
        <use xlink:href="#g3zzzFuCv1" opacity="1" fill="#463d3b" fill-opacity="1"></use>
        <g>
          <use xlink:href="#g3zzzFuCv1" opacity="1" fill-opacity="0" stroke="#000000" stroke-width="1"
               stroke-opacity="0"></use>
        </g>
      </g>
    </g>
  </g>
</svg>